<svg xmlns="http://www.w3.org/2000/svg" viewBox="0 0 512 81" fill="#f2b51b"><path d="M465.309 80.935H512L488.655 40.5 465.309.065 441.964 40.5l-23.345 40.435zM442.813.065h-46.691-46.691L372.777 40.5l23.345 40.435L419.467 40.5zm-19.447 11.227l-13.622 23.594-13.622 23.594L382.5 34.886l-13.622-23.594h27.244zM35.287 63.13h33.892v17.804H0l38.291-63.066H6.436V.065h66.927zm94.169-45.261h-24.99v13.514h23.595v17.805h-23.595V63.13h24.99v17.804H83.444V.065h46.012z"/><path d="M165.601 37.175h6.971c7.722 0 11.583-3.359 11.583-10.081s-3.861-10.082-11.583-10.082h-6.971zm0 43.761h-21.023V.064h33.465c9.079 0 16.034 2.36 20.86 7.08s7.24 11.369 7.24 19.949-2.413 15.231-7.24 19.948-11.781 7.08-20.86 7.08h-12.442zm72.719-.001h-21.023V.065h21.023zm71.526-53.134c-4.607-5.622-10.295-8.432-17.068-8.432-2.982 0-5.741.543-8.28 1.625s-4.724 2.558-6.553 4.42-3.269 4.081-4.318 6.654-1.575 5.351-1.575 8.33c0 3.048.524 5.86 1.575 8.432s2.506 4.81 4.369 6.706 4.046 3.387 6.552 4.47 5.215 1.625 8.128 1.625c6.366 0 12.091-2.707 17.17-8.127v23.57l-2.032.711c-3.047 1.082-5.892 1.88-8.533 2.388s-5.249.761-7.823.761c-5.284 0-10.347-1-15.19-2.997s-9.111-4.808-12.801-8.432-6.654-7.924-8.889-12.903-3.353-10.414-3.353-16.306 1.1-11.294 3.302-16.205 5.146-9.144 8.839-12.699 7.975-6.333 12.851-8.331 9.99-2.997 15.341-2.997c3.048 0 6.045.322 8.992.965s6.045 1.643 9.296 2.997z" clip-path="none"/></svg>