<svg xmlns="http://www.w3.org/2000/svg" viewBox="0 0 724 512"><path d="M0 512h724V0H0z" fill="#f2b51b"/><g fill="#fff"><path d="M554.704 293.227h42.986L576.197 256l-21.493-37.227L533.211 256l-21.493 37.227zm-20.712-74.454h-42.986-42.986L469.512 256l21.493 37.227L512.499 256zm-17.904 10.337l-12.541 21.722-12.541 21.722-12.541-21.722-12.541-21.722h25.082zm-357.29 47.725h31.203v16.392H126.31l35.253-58.062h-29.328v-16.392h61.617zm86.698-41.67h-23.007v12.441h21.723v16.393h-21.723v12.836h23.007v16.392h-42.362v-74.454h42.362z"/><path d="M278.773 252.938h6.418c7.11 0 10.664-3.093 10.664-9.281s-3.555-9.282-10.664-9.282h-6.418zm0 40.289h-19.355v-74.455h30.81c8.359 0 14.762 2.173 19.205 6.518s6.666 10.467 6.666 18.367-2.222 14.022-6.666 18.366-10.847 6.518-19.205 6.518h-11.455zm66.949 0h-19.355v-74.454h19.355zm65.852-48.919c-4.241-5.176-9.478-7.763-15.714-7.763-2.745 0-5.285.5-7.623 1.496s-4.35 2.355-6.033 4.069-3.01 3.757-3.975 6.127-1.45 4.927-1.45 7.67c0 2.807.483 5.395 1.45 7.763s2.307 4.429 4.023 6.174 3.725 3.119 6.032 4.116 4.801 1.496 7.483 1.496c5.861 0 11.132-2.493 15.808-7.482v21.7l-1.871.655c-2.806.996-5.425 1.731-7.856 2.198s-4.833.701-7.203.701c-4.865 0-9.526-.92-13.984-2.759s-8.388-4.427-11.785-7.763-6.127-7.295-8.184-11.879-3.087-9.588-3.087-15.012 1.012-10.398 3.04-14.919 4.737-8.419 8.137-11.691 7.343-5.831 11.832-7.67a36.9 36.9 0 0 1 14.124-2.759 38.73 38.73 0 0 1 8.279.888c2.712.594 5.566 1.513 8.558 2.759z" clip-path="none"/></g></svg>